<?xml version="1.0" encoding="UTF-8"?>
<svg xmlns="http://www.w3.org/2000/svg" viewBox="0 0 850 680">
  <defs>
    <linearGradient id="folderGrad" x1="0%" y1="0%" x2="100%" y2="100%">
      <stop offset="0%" stop-color="#F59E0B"/>
      <stop offset="100%" stop-color="#D97706"/>
    </linearGradient>
    <linearGradient id="sqlGrad" x1="0%" y1="0%" x2="100%" y2="100%">
      <stop offset="0%" stop-color="#3B82F6"/>
      <stop offset="100%" stop-color="#2563EB"/>
    </linearGradient>
    <linearGradient id="mdGrad" x1="0%" y1="0%" x2="100%" y2="100%">
      <stop offset="0%" stop-color="#10B981"/>
      <stop offset="100%" stop-color="#059669"/>
    </linearGradient>
    <linearGradient id="notebookGrad" x1="0%" y1="0%" x2="100%" y2="100%">
      <stop offset="0%" stop-color="#8B5CF6"/>
      <stop offset="100%" stop-color="#7C3AED"/>
    </linearGradient>
  </defs>
  
  <rect width="850" height="680" fill="#F8FAFC"/>
  
  <text x="425" y="30" text-anchor="middle" font-family="Arial, sans-serif" font-size="18" font-weight="bold" fill="#1E293B">Project Directory Structure</text>
  
  <!-- Root level -->
  <rect x="30" y="50" width="22" height="18" rx="3" fill="url(#mdGrad)"/>
  <text x="58" y="64" font-family="monospace" font-size="12" fill="#374151">README.md</text>
  <text x="300" y="64" font-family="Arial, sans-serif" font-size="11" fill="#6B7280">Project documentation</text>
  
  <!-- docs folder -->
  <rect x="30" y="80" width="22" height="18" rx="3" fill="url(#folderGrad)"/>
  <text x="58" y="94" font-family="monospace" font-size="12" font-weight="bold" fill="#374151">docs/</text>
  <text x="300" y="94" font-family="Arial, sans-serif" font-size="11" fill="#6B7280">Documentation files</text>
  
  <line x1="45" y1="100" x2="45" y2="170" stroke="#CBD5E1" stroke-width="1"/>
  
  <line x1="45" y1="110" x2="55" y2="110" stroke="#CBD5E1" stroke-width="1"/>
  <rect x="60" y="102" width="18" height="14" rx="2" fill="url(#mdGrad)"/>
  <text x="84" y="113" font-family="monospace" font-size="11" fill="#374151">AGENT_SETUP.md</text>
  <text x="300" y="113" font-family="Arial, sans-serif" font-size="10" fill="#9CA3AF">Agent configuration guide</text>
  
  <line x1="45" y1="130" x2="55" y2="130" stroke="#CBD5E1" stroke-width="1"/>
  <rect x="60" y="122" width="18" height="14" rx="2" fill="url(#mdGrad)"/>
  <text x="84" y="133" font-family="monospace" font-size="11" fill="#374151">DEMO_PRESENTATION_GUIDE.md</text>
  <text x="350" y="133" font-family="Arial, sans-serif" font-size="10" fill="#9CA3AF">Demo walkthrough</text>
  
  <line x1="45" y1="150" x2="55" y2="150" stroke="#CBD5E1" stroke-width="1"/>
  <rect x="60" y="142" width="18" height="14" rx="2" fill="url(#mdGrad)"/>
  <text x="84" y="153" font-family="monospace" font-size="11" fill="#374151">FEATURE_STORE_GUIDE.md</text>
  <text x="330" y="153" font-family="Arial, sans-serif" font-size="10" fill="#9CA3AF">Feature Store docs</text>
  
  <line x1="45" y1="170" x2="55" y2="170" stroke="#CBD5E1" stroke-width="1"/>
  <rect x="60" y="162" width="18" height="14" rx="2" fill="url(#mdGrad)"/>
  <text x="84" y="173" font-family="monospace" font-size="11" fill="#374151">questions.md</text>
  <text x="300" y="173" font-family="Arial, sans-serif" font-size="10" fill="#9CA3AF">Sample agent questions</text>
  
  <!-- notebooks folder -->
  <rect x="30" y="195" width="22" height="18" rx="3" fill="url(#folderGrad)"/>
  <text x="58" y="209" font-family="monospace" font-size="12" font-weight="bold" fill="#374151">notebooks/</text>
  <text x="300" y="209" font-family="Arial, sans-serif" font-size="11" fill="#6B7280">Jupyter notebooks</text>
  
  <line x1="45" y1="215" x2="45" y2="235" stroke="#CBD5E1" stroke-width="1"/>
  <line x1="45" y1="235" x2="55" y2="235" stroke="#CBD5E1" stroke-width="1"/>
  <rect x="60" y="227" width="18" height="14" rx="2" fill="url(#notebookGrad)"/>
  <text x="84" y="238" font-family="monospace" font-size="11" fill="#374151">macu_ml_models.ipynb</text>
  <text x="300" y="238" font-family="Arial, sans-serif" font-size="10" fill="#9CA3AF">ML training notebook</text>
  
  <!-- sql folder -->
  <rect x="30" y="260" width="22" height="18" rx="3" fill="url(#folderGrad)"/>
  <text x="58" y="274" font-family="monospace" font-size="12" font-weight="bold" fill="#374151">sql/</text>
  <text x="300" y="274" font-family="Arial, sans-serif" font-size="11" fill="#6B7280">SQL scripts</text>
  
  <line x1="45" y1="280" x2="45" y2="650" stroke="#CBD5E1" stroke-width="1"/>
  
  <!-- setup subfolder -->
  <line x1="45" y1="295" x2="55" y2="295" stroke="#CBD5E1" stroke-width="1"/>
  <rect x="60" y="287" width="18" height="14" rx="2" fill="url(#folderGrad)"/>
  <text x="84" y="298" font-family="monospace" font-size="11" font-weight="bold" fill="#374151">setup/</text>
  <text x="300" y="298" font-family="Arial, sans-serif" font-size="10" fill="#6B7280">Database initialization</text>
  
  <line x1="75" y1="305" x2="75" y2="340" stroke="#CBD5E1" stroke-width="1"/>
  <line x1="75" y1="315" x2="85" y2="315" stroke="#CBD5E1" stroke-width="1"/>
  <rect x="90" y="307" width="14" height="12" rx="2" fill="url(#sqlGrad)"/>
  <text x="110" y="317" font-family="monospace" font-size="10" fill="#374151">01_database_and_schema.sql</text>
  
  <line x1="75" y1="335" x2="85" y2="335" stroke="#CBD5E1" stroke-width="1"/>
  <rect x="90" y="327" width="14" height="12" rx="2" fill="url(#sqlGrad)"/>
  <text x="110" y="337" font-family="monospace" font-size="10" fill="#374151">02_create_tables.sql</text>
  
  <!-- data subfolder -->
  <line x1="45" y1="360" x2="55" y2="360" stroke="#CBD5E1" stroke-width="1"/>
  <rect x="60" y="352" width="18" height="14" rx="2" fill="url(#folderGrad)"/>
  <text x="84" y="363" font-family="monospace" font-size="11" font-weight="bold" fill="#374151">data/</text>
  <text x="300" y="363" font-family="Arial, sans-serif" font-size="10" fill="#6B7280">Data generation</text>
  
  <line x1="75" y1="370" x2="75" y2="385" stroke="#CBD5E1" stroke-width="1"/>
  <line x1="75" y1="385" x2="85" y2="385" stroke="#CBD5E1" stroke-width="1"/>
  <rect x="90" y="377" width="14" height="12" rx="2" fill="url(#sqlGrad)"/>
  <text x="110" y="387" font-family="monospace" font-size="10" fill="#374151">04_generate_synthetic_data.sql</text>
  
  <!-- feature_store subfolder -->
  <line x1="45" y1="405" x2="55" y2="405" stroke="#CBD5E1" stroke-width="1"/>
  <rect x="60" y="397" width="18" height="14" rx="2" fill="url(#folderGrad)"/>
  <text x="84" y="408" font-family="monospace" font-size="11" font-weight="bold" fill="#374151">feature_store/</text>
  <text x="300" y="408" font-family="Arial, sans-serif" font-size="10" fill="#6B7280">Feature Store infrastructure</text>
  
  <line x1="75" y1="415" x2="75" y2="480" stroke="#CBD5E1" stroke-width="1"/>
  <line x1="75" y1="425" x2="85" y2="425" stroke="#CBD5E1" stroke-width="1"/>
  <rect x="90" y="417" width="14" height="12" rx="2" fill="url(#sqlGrad)"/>
  <text x="110" y="427" font-family="monospace" font-size="10" fill="#374151">03_create_feature_store.sql</text>
  
  <line x1="75" y1="445" x2="85" y2="445" stroke="#CBD5E1" stroke-width="1"/>
  <rect x="90" y="437" width="14" height="12" rx="2" fill="url(#sqlGrad)"/>
  <text x="110" y="447" font-family="monospace" font-size="10" fill="#374151">05_create_features.sql</text>
  
  <line x1="75" y1="465" x2="85" y2="465" stroke="#CBD5E1" stroke-width="1"/>
  <rect x="90" y="457" width="14" height="12" rx="2" fill="url(#sqlGrad)"/>
  <text x="110" y="467" font-family="monospace" font-size="10" fill="#374151">05a_populate_monitoring_data.sql</text>
  
  <line x1="75" y1="485" x2="85" y2="485" stroke="#CBD5E1" stroke-width="1"/>
  <rect x="90" y="477" width="14" height="12" rx="2" fill="url(#sqlGrad)"/>
  <text x="110" y="487" font-family="monospace" font-size="10" fill="#374151">05b_create_aggregation_views.sql</text>
  
  <!-- views subfolder -->
  <line x1="45" y1="505" x2="55" y2="505" stroke="#CBD5E1" stroke-width="1"/>
  <rect x="60" y="497" width="18" height="14" rx="2" fill="url(#folderGrad)"/>
  <text x="84" y="508" font-family="monospace" font-size="11" font-weight="bold" fill="#374151">views/</text>
  <text x="300" y="508" font-family="Arial, sans-serif" font-size="10" fill="#6B7280">Analytical views</text>
  
  <line x1="75" y1="515" x2="75" y2="550" stroke="#CBD5E1" stroke-width="1"/>
  <line x1="75" y1="525" x2="85" y2="525" stroke="#CBD5E1" stroke-width="1"/>
  <rect x="90" y="517" width="14" height="12" rx="2" fill="url(#sqlGrad)"/>
  <text x="110" y="527" font-family="monospace" font-size="10" fill="#374151">06_create_views.sql</text>
  
  <line x1="75" y1="545" x2="85" y2="545" stroke="#CBD5E1" stroke-width="1"/>
  <rect x="90" y="537" width="14" height="12" rx="2" fill="url(#sqlGrad)"/>
  <text x="110" y="547" font-family="monospace" font-size="10" fill="#374151">07_create_semantic_views.sql</text>
  
  <!-- search, ml, agent, monitoring, validation -->
  <line x1="45" y1="565" x2="55" y2="565" stroke="#CBD5E1" stroke-width="1"/>
  <rect x="60" y="557" width="18" height="14" rx="2" fill="url(#folderGrad)"/>
  <text x="84" y="568" font-family="monospace" font-size="11" font-weight="bold" fill="#374151">search/</text>
  <rect x="130" y="557" width="14" height="12" rx="2" fill="url(#sqlGrad)"/>
  <text x="150" y="567" font-family="monospace" font-size="10" fill="#374151">08_create_cortex_search.sql</text>
  
  <line x1="45" y1="585" x2="55" y2="585" stroke="#CBD5E1" stroke-width="1"/>
  <rect x="60" y="577" width="18" height="14" rx="2" fill="url(#folderGrad)"/>
  <text x="84" y="588" font-family="monospace" font-size="11" font-weight="bold" fill="#374151">ml/</text>
  <rect x="110" y="577" width="14" height="12" rx="2" fill="url(#sqlGrad)"/>
  <text x="130" y="587" font-family="monospace" font-size="10" fill="#374151">09_create_model_functions.sql</text>
  
  <line x1="45" y1="605" x2="55" y2="605" stroke="#CBD5E1" stroke-width="1"/>
  <rect x="60" y="597" width="18" height="14" rx="2" fill="url(#folderGrad)"/>
  <text x="84" y="608" font-family="monospace" font-size="11" font-weight="bold" fill="#374151">agent/</text>
  <rect x="130" y="597" width="14" height="12" rx="2" fill="url(#sqlGrad)"/>
  <text x="150" y="607" font-family="monospace" font-size="10" fill="#374151">10_create_intelligence_agent.sql</text>
  
  <line x1="45" y1="625" x2="55" y2="625" stroke="#CBD5E1" stroke-width="1"/>
  <rect x="60" y="617" width="18" height="14" rx="2" fill="url(#folderGrad)"/>
  <text x="84" y="628" font-family="monospace" font-size="11" font-weight="bold" fill="#374151">monitoring/</text>
  <rect x="160" y="617" width="14" height="12" rx="2" fill="url(#sqlGrad)"/>
  <text x="180" y="627" font-family="monospace" font-size="10" fill="#374151">11_create_monitoring_dashboard.sql</text>
  
  <line x1="45" y1="645" x2="55" y2="645" stroke="#CBD5E1" stroke-width="1"/>
  <rect x="60" y="637" width="18" height="14" rx="2" fill="url(#folderGrad)"/>
  <text x="84" y="648" font-family="monospace" font-size="11" font-weight="bold" fill="#374151">validation/</text>
  <rect x="155" y="637" width="14" height="12" rx="2" fill="url(#sqlGrad)"/>
  <text x="175" y="647" font-family="monospace" font-size="10" fill="#374151">12_validate_deployment.sql</text>
  
  <!-- Legend -->
  <rect x="600" y="55" width="220" height="100" rx="8" fill="white" stroke="#E2E8F0" stroke-width="1"/>
  <text x="710" y="75" text-anchor="middle" font-family="Arial, sans-serif" font-size="11" font-weight="bold" fill="#374151">Legend</text>
  
  <rect x="620" y="90" width="16" height="12" rx="2" fill="url(#folderGrad)"/>
  <text x="645" y="100" font-family="Arial, sans-serif" font-size="10" fill="#374151">Folder</text>
  
  <rect x="720" y="90" width="16" height="12" rx="2" fill="url(#sqlGrad)"/>
  <text x="745" y="100" font-family="Arial, sans-serif" font-size="10" fill="#374151">SQL File</text>
  
  <rect x="620" y="115" width="16" height="12" rx="2" fill="url(#mdGrad)"/>
  <text x="645" y="125" font-family="Arial, sans-serif" font-size="10" fill="#374151">Markdown</text>
  
  <rect x="720" y="115" width="16" height="12" rx="2" fill="url(#notebookGrad)"/>
  <text x="745" y="125" font-family="Arial, sans-serif" font-size="10" fill="#374151">Notebook</text>
</svg>